<svg width="240" height="324" viewBox="0 0 240 324" fill="none" xmlns="http://www.w3.org/2000/svg">
<path fill-rule="evenodd" clip-rule="evenodd" d="M198.116 286.313C202.199 286.116 200.557 278.971 200.264 276.347C197.031 266.764 197.791 256.308 196.52 246.263C195.728 236.886 194.71 227.538 193.854 218.168C192.173 199.147 180.099 160.427 166.321 154.2C164.586 146.582 157.417 139.47 148.348 139.47C142.162 132.145 134.716 126.99 125.166 128.031C121.22 128.21 117.392 132.398 113.611 133.206C111.494 133.498 92.7034 132.746 88.9395 134.983C86.3176 136.329 83.9508 138.818 84.7217 141.986C85.9517 145.825 82.1292 141.672 74.1554 145.769C57.8955 155.538 67.6117 168.607 68.0423 169.012C57.8955 183.135 49.0268 194.593 44.9233 211.855C42.2639 224.671 42.5633 237.902 40.335 250.784C39.5483 255.25 38.3413 259.564 37.0352 263.902C35.6197 269.578 34.9315 283.727 34.1512 283.853C32.73 284.206 34.9726 287.126 36.4785 287.128C78.2301 294.056 120.64 287.415 162.615 286.33C174.445 285.918 186.287 285.823 198.116 286.313Z" fill="white"/>
<path fill-rule="evenodd" clip-rule="evenodd" d="M134.835 170.259C134.854 170.067 135.112 170.068 135.132 170.259L135.427 173.105C135.785 176.582 136.131 180.052 136.381 183.545C136.693 187.901 136.902 192.255 137.002 196.621C137.353 211.825 137.423 227.037 137.452 242.244C139.508 242.102 141.564 241.965 143.621 241.832C145.017 241.742 146.413 241.655 147.809 241.57L151.368 241.354V241.354L152.833 241.264C153.823 241.203 154.948 240.954 155.641 241.831C155.918 242.182 156.057 242.639 155.799 243.056C155.203 244.018 154.287 243.984 153.252 244.026C152.275 244.065 151.298 244.104 150.321 244.142C148.228 244.223 146.134 244.3 144.04 244.358C141.843 244.42 139.646 244.47 137.449 244.508C137.427 250.928 137.162 257.34 136.874 263.753L136.745 266.639C136.393 274.443 136.015 282.254 135.478 290.048C135.434 290.686 134.532 290.685 134.488 290.048C133.884 281.271 133.485 272.475 133.089 263.686C132.802 257.314 132.635 250.94 132.556 244.565C132.265 244.566 131.975 244.57 131.685 244.572C123.44 244.607 115.197 244.643 106.952 244.566C106.965 244.582 106.979 244.599 106.988 244.62C107.585 246.029 107.641 247.827 107.627 249.34C107.61 251.074 107.377 252.787 106.977 254.474C105.547 260.516 101.857 265.928 97.6542 270.402L97.517 270.547C96.5257 271.595 95.3884 272.648 94.7798 273.983C94.1581 275.345 93.9423 276.939 93.6355 278.404L93.5996 278.572L92.4001 284.115C92.0189 285.876 91.9108 288.443 90.5177 289.713C89.2179 290.899 87.4961 290.28 86.8845 288.754C86.4068 287.563 86.8826 286.255 87.1655 285.064L89.3819 275.744C89.7461 274.224 90.1441 272.694 90.9301 271.328C91.7352 269.93 92.9156 268.916 94.12 267.879C96.4006 265.915 98.4943 263.666 100.265 261.231C102.035 258.797 103.548 256.114 104.608 253.293C105.14 251.881 105.575 250.414 105.875 248.935C106.16 247.531 106.158 246.077 106.463 244.689C106.484 244.593 106.565 244.527 106.658 244.498C106.636 244.436 106.669 244.352 106.756 244.347L113.499 243.913C119.493 243.527 125.487 243.13 131.475 242.677L132.534 242.6V242.6C132.452 234.094 132.521 225.587 132.675 217.078C132.816 209.275 132.819 201.47 133.05 193.668C133.166 189.796 133.415 185.933 133.691 182.069C133.974 178.117 134.428 174.199 134.835 170.259ZM71.5196 215.501C71.4478 215.068 71.9927 214.8 72.2439 215.196C75.1152 219.724 76.4996 224.641 77.0832 229.94C77.5987 234.616 77.4468 239.359 77.1901 244.048C76.9163 249.048 76.5968 254.048 76.2738 259.045L75.7775 266.71V266.71L74.5321 285.923C74.4429 287.298 74.1311 288.547 72.9482 289.186C72.7984 289.311 72.6423 289.424 72.4604 289.521C71.8213 289.863 70.9737 289.69 70.6042 289.034L70.7524 289.131C70.8814 289.213 70.7365 289.099 70.3175 288.791L69.962 288.331V288.331C69.7036 287.943 69.5386 287.561 69.4722 287.099C69.3691 286.381 69.5027 285.594 69.5496 284.873L70.3659 272.274V272.274C71.0008 262.479 71.7421 252.688 72.3009 242.888C72.5612 238.321 72.7435 233.749 72.6201 229.174C72.4972 224.624 72.2654 219.997 71.5196 215.501ZM96.3593 131.161L96.5186 131.134C102.222 130.186 108.423 130.364 113.636 133.114C113.679 133.137 113.659 133.208 113.611 133.206L111.933 133.139C106.622 132.931 101.327 132.808 96.1052 134.056L95.5706 134.185C93.69 134.644 91.726 135.206 90.2155 136.448C88.7717 137.636 88.0527 139.468 87.3615 141.155L87.269 141.378C86.5676 143.044 85.6799 144.624 84.1426 145.665C82.1514 147.014 79.7567 146.849 77.4735 147.032C73.4535 147.356 70.1668 150.27 68.5316 153.837C67.5414 155.996 67.1191 158.417 67.0354 160.779C66.9925 161.981 66.9864 163.231 67.1465 164.425C67.1977 164.807 67.6696 166.198 67.9103 166.165C68.445 166.091 68.9339 166.37 69.1005 166.797C70.4214 165.521 71.7803 164.281 73.1829 163.086C76.6791 160.107 80.445 157.408 84.4109 155.088C87.4377 153.317 90.6304 151.563 93.9365 150.237C93.6746 150.231 93.4162 150.283 93.1663 150.413C93.0568 150.47 92.948 150.333 93.0344 150.242C94.0758 149.146 95.3231 148.99 96.5806 149.282C96.8489 149.197 97.1174 149.114 97.387 149.036C97.5211 148.997 97.5879 149.182 97.4784 149.253L97.1696 149.451V149.451C98.5413 149.91 99.8882 150.814 100.954 151.527C104.017 153.575 106.713 156.078 109.446 158.535L109.943 158.98C112.349 161.129 114.816 163.217 117.549 164.941C118.98 165.843 120.482 166.678 122.059 167.298C123.41 167.831 125.612 168.167 126.245 169.596C126.808 170.28 126.573 171.153 125.913 171.613C124.802 172.837 122.578 172.046 121.253 171.537C119.656 170.922 118.109 170.183 116.634 169.317C113.769 167.635 111.128 165.543 108.667 163.318C106.098 160.994 103.674 158.525 101.175 156.128C100.092 155.089 99.0338 154.027 97.9492 152.99L97.4045 152.473C96.851 151.954 96.0623 151.145 95.2191 150.655C93.6306 151.603 92.0176 152.511 90.4434 153.484C88.246 154.841 86.1133 156.296 84.0135 157.799C79.9711 160.693 76.1404 163.934 72.5841 167.408C66.0619 173.778 60.5051 181.053 55.6508 188.756L55.2822 189.343C52.5237 193.752 49.9151 198.303 48.0655 203.174C46.0303 208.535 45.0405 214.173 44.5029 219.863C43.9692 225.513 43.7892 231.191 43.1928 236.836C42.5812 242.625 41.3761 248.286 40.0054 253.937L39.6785 255.277C38.4382 260.337 37.1581 265.398 36.5205 270.578C36.1802 273.345 35.9755 276.15 36.0217 278.939C36.0682 281.745 36.5089 284.488 36.8645 287.265C37.0007 288.328 35.9545 289.216 35.0184 289.357C33.9418 289.518 33.0169 288.831 32.6822 287.831C31.639 284.712 31.4495 281.264 31.4822 277.991C31.5152 274.667 31.9392 271.365 32.5358 268.099C33.7092 261.674 35.52 255.383 37.0348 249.035C38.3698 243.44 39.2657 237.836 39.7487 232.104C40.25 226.157 40.5503 220.191 41.4648 214.287C42.3676 208.459 44.0662 202.892 46.6278 197.578C48.9602 192.739 51.8676 188.185 54.9158 183.77C58.6174 178.41 62.6829 173.309 67.2272 168.661C66.8191 168.644 66.3999 168.512 66.015 168.272C64.8374 167.537 64.2889 166.099 64.1203 164.787C63.7257 161.717 63.821 158.511 64.6103 155.509C65.8836 150.667 69.1882 146.364 73.9777 144.619C75.2104 144.169 76.5209 144.005 77.8274 143.973C79.0671 143.942 80.4211 144.104 81.6173 143.711C83.5213 143.085 84.3375 140.841 85.0523 139.141L85.0853 139.063C86.002 136.896 87.1022 135.038 89.0877 133.685C91.206 132.242 93.8601 131.585 96.3593 131.161V131.161ZM150.549 139.731C152.263 139.136 154.405 139.676 156.081 140.195C157.949 140.774 159.674 141.841 161.153 143.108C162.714 144.443 164.004 146.093 164.915 147.935L165.002 148.113C165.834 149.822 166.782 152.168 166.363 154.046C166.351 154.099 166.337 154.151 166.321 154.2C169.722 155.875 172.862 157.972 175.596 160.631C178.781 163.726 181.477 167.248 183.759 171.053C192.821 186.166 194.416 204.317 195.486 221.552L195.753 225.922C196.334 235.359 197.014 244.773 198.781 254.08L198.91 254.751C200.798 264.495 203.501 274.313 203.227 284.309C203.145 287.304 198.721 287.283 198.593 284.309C198.11 273.113 195.498 262.303 193.73 251.283C190.618 231.893 192.177 211.904 187.768 192.708C186.038 185.175 183.357 177.868 179.53 171.144C177.639 167.822 175.476 164.613 172.942 161.747C170.762 159.281 168.496 156.908 165.948 154.835C165.134 155.651 163.508 155.235 163.082 154.046C162.79 153.229 162.876 152.273 162.688 151.417C162.514 150.622 162.275 149.835 161.955 149.087C161.318 147.596 160.384 146.164 159.305 144.957C158.139 143.652 156.8 142.569 155.301 141.674C153.791 140.773 152.141 140.504 150.549 139.845C150.495 139.823 150.49 139.751 150.549 139.731ZM157.208 243.355C157.21 243.276 157.303 243.239 157.36 243.292C157.961 243.845 158.324 244.638 158.766 245.319C159.276 246.103 159.812 246.872 160.373 247.62C161.498 249.12 162.751 250.534 164.014 251.919C165.188 253.207 166.439 254.44 167.738 255.603C169.144 256.863 170.72 257.988 171.998 259.383C174.665 262.294 175.096 266.291 175.658 270.043L175.72 270.449C176.063 272.675 176.371 274.908 176.648 277.144C176.783 278.232 176.917 279.32 177.027 280.411L177.06 280.756C177.158 281.823 177.185 282.906 176.572 283.839C175.916 284.837 174.425 285.187 173.538 284.23C172.014 282.586 172.3 279.667 172.102 277.552C171.938 275.804 171.752 274.057 171.545 272.313L171.439 271.442C171.194 269.458 170.995 267.435 170.541 265.485C170.141 263.769 169.379 262.473 168.129 261.23C166.869 259.977 165.56 258.808 164.398 257.459C163.165 256.028 162.052 254.494 161.05 252.892C160.193 251.523 159.506 250.032 158.876 248.544L158.772 248.296C158.163 246.844 157.16 244.954 157.208 243.355ZM179.203 180.997C179.216 180.795 179.515 180.791 179.52 180.997C179.558 182.739 179.594 184.48 179.63 186.222C179.921 200.256 179.742 214.323 181.149 228.309C181.813 234.903 183.035 241.401 184.45 247.871C185.174 251.182 185.933 254.485 186.654 257.796C187.357 261.023 188.111 264.266 188.669 267.523C189.217 270.724 189.708 273.95 189.928 277.192L189.956 277.615C190.051 279.186 190.503 281.496 189.639 282.888C188.702 284.396 186.909 284.423 185.905 282.984C184.962 281.632 185.197 279.228 185.03 277.615C184.861 275.973 184.682 274.328 184.479 272.689C184.082 269.492 183.56 266.302 183.016 263.127C181.885 256.514 180.243 249.985 179.031 243.383C177.79 236.618 176.907 229.804 176.87 222.916C176.833 215.97 177.568 209.037 177.939 202.106C178.316 195.066 178.744 188.032 179.203 180.997ZM112.932 137.346C113.309 136.077 114.638 135.284 115.935 135.64C117.123 135.967 118.105 137.41 117.64 138.645C117.133 139.992 116.247 141.14 115.5 142.365C114.81 143.496 113.803 144.387 113.101 145.498L113.875 146.334C114.263 146.75 114.651 147.165 115.044 147.572L116.395 148.972C117.447 150.059 118.506 151.142 119.595 152.192C122.796 155.281 126.048 158.268 129.633 160.913C130.449 161.515 131.271 162.114 132.117 162.674L132.432 162.883C133.012 163.263 133.659 163.637 134.36 163.572C136.063 163.416 137.601 161.607 138.771 160.481L138.832 160.423C141.732 157.662 144.417 154.645 146.765 151.4C147.286 150.679 147.79 149.946 148.282 149.204C147.147 147.878 147.418 145.289 147.355 143.681C147.311 142.55 147.308 141.419 147.302 140.287L147.299 140.059C147.285 139.326 147.252 138.624 147.727 138.021C147.755 137.986 147.812 137.987 147.847 138.005C148.498 138.347 148.699 138.918 148.976 139.559L149.005 139.625C149.343 140.394 149.667 141.171 149.995 141.944C150.337 142.754 150.652 143.576 150.97 144.395C151.119 144.777 151.26 145.159 151.399 145.544C151.483 145.79 151.57 146.035 151.66 146.279L151.681 146.298C151.799 146.398 151.9 146.504 151.986 146.614C152.349 146.795 152.638 147.126 152.773 147.613C153.068 148.672 152.458 149.536 151.914 150.376C149.704 153.792 147.185 157.046 144.385 159.999C142.994 161.465 141.531 162.866 140.008 164.195L139.741 164.426C138.373 165.602 136.887 166.716 135.06 166.991C132.921 167.313 131.181 166.249 129.544 165.024L129.38 164.901C127.828 163.726 126.308 162.509 124.834 161.236C121.83 158.642 118.972 155.856 116.436 152.8C113.969 149.827 111.53 146.503 110.01 142.926C109.917 142.708 110.161 142.48 110.352 142.662C111.095 143.369 111.809 144.115 112.516 144.87C112.535 143.758 112.33 142.637 112.444 141.518C112.583 140.158 112.543 138.656 112.932 137.346Z" fill="black"/>
<path fill-rule="evenodd" clip-rule="evenodd" d="M132.798 46.2808C144.794 46.2808 159.818 59.9701 164.215 65.7955C167.912 70.6932 167.389 95.9244 167.389 110.892C167.389 114.022 165.975 119.946 165.461 122.941C163.58 133.913 155.382 143.115 139.157 143.115C125.946 143.115 115.779 138.929 105.948 128.222C103.705 125.779 92.7509 134.524 90.5107 131.375C84.6593 131.375 79.7665 76.6819 91.255 60.2772C102.743 43.8726 120.802 46.2808 132.798 46.2808Z" fill="white"/>
<path fill-rule="evenodd" clip-rule="evenodd" d="M96.7432 50.1333C103.675 43.8245 112.909 40.7895 122.226 41.0135C127.052 41.1297 131.86 42.0491 136.417 43.6237C138.697 44.4141 140.904 45.4455 143.015 46.6122C143.776 47.0316 144.477 47.5231 145.152 48.0451L145.32 48.1762H145.322C147.133 48.8271 148.749 49.9959 150.215 51.3633C153.154 51.1287 156.116 51.3929 158.957 52.2996C162.912 53.5635 166.573 55.8778 169.145 59.1643C172.139 62.9904 173.135 67.6314 172.78 72.4224L172.714 73.2363C172.363 77.4685 171.734 82.9121 168.261 85.693C167.997 85.9043 167.706 86.0649 167.404 86.1622C169.641 89.996 171.477 94.2526 172.576 98.5515C176.769 114.971 173.545 132.095 168.502 147.921C168.088 149.225 166.117 150.091 165.114 148.817C163.322 146.539 160.719 144.801 157.791 144.476C155.985 144.275 154.187 144.639 152.48 143.819C151.81 143.495 151.164 142.967 150.699 142.324C147.817 143.417 144.714 143.933 141.635 143.806C136.584 143.599 131.184 141.849 127.709 138.011C127.151 137.395 127.01 136.703 127.138 136.079C127.574 135.924 128.021 135.808 128.482 135.735C132.889 138.334 137.747 140.07 142.968 140.179C145.985 140.242 148.927 139.82 151.373 137.936C151.903 137.528 152.389 137.076 152.839 136.591C157.953 133.3 161.559 127.71 163.273 121.722C164.871 116.138 164.674 110.324 164.125 104.596L163.835 101.574C163.413 97.1376 163.021 92.6883 162.911 88.2334L162.944 88.2317V88.2317C164.024 88.1619 164.032 86.4705 162.944 86.5409C160.13 86.7231 157.338 86.2613 154.532 86.4625C154.509 85.1358 154.413 83.8151 154.024 82.5356C153.801 81.8045 152.529 81.6604 152.394 82.5356C152.214 83.7065 152.148 84.8708 152.128 86.047C147.93 85.9912 143.736 85.6378 139.537 85.783C138.763 84.9566 138.516 83.4913 138.154 82.472C138.101 82.3219 138.048 82.174 137.993 82.0239C137.675 83.4805 137.223 84.9052 136.63 86.2999L135.6 86.3034C129.758 86.3309 123.796 86.5056 118.091 87.7194C117.694 87.4148 117.458 86.8835 117.395 86.401C116.981 83.2612 116.39 80.2049 115.343 77.2128L115.194 76.7907C115.181 76.7556 115.168 76.7184 115.155 76.6793C114.384 77.9248 113.463 79.0857 112.46 80.1668C111.868 80.804 111.248 81.4133 110.611 82.0053C109.993 82.6922 109.354 83.3687 108.734 84.0577C108.759 84.1831 108.78 84.3103 108.797 84.4399C108.986 85.8696 109.006 87.3197 108.867 88.755C108.616 91.3497 107.884 93.85 106.708 96.163L106.67 96.3946C106.492 97.4786 106.238 98.5988 105.644 99.4151C106.385 100.245 106.955 101.237 107.286 102.339C107.581 103.32 106.224 104.17 105.521 103.367C104.962 102.729 104.341 102.202 103.659 101.781C103.616 101.839 103.538 101.868 103.451 101.819C101.552 100.764 98.3255 101.083 96.4284 102.077C94.0685 103.311 93.1474 105.845 93.4093 108.413C93.6608 110.867 94.734 113.735 96.815 114.992C97.7699 115.569 98.5136 115.618 99.5277 115.341C99.8519 115.253 100.254 114.983 100.426 114.849L100.596 114.712C101.261 114.187 101.88 113.827 102.665 113.813C103.468 113.563 104.274 113.91 104.581 114.752L104.6 114.806C104.744 115.235 105.006 115.774 104.949 116.43C104.89 117.131 104.569 117.77 104.089 118.283C104.007 118.372 103.918 118.461 103.827 118.543C112.088 127.49 113.148 141.43 108.912 152.606C108.728 153.097 108.532 153.581 108.327 154.061C107.619 155.705 104.894 155.195 104.547 153.566C104.444 153.078 104.33 152.592 104.205 152.11C103.976 151.219 103.714 150.337 103.418 149.468L103.305 149.142C103.054 148.424 102.819 147.699 102.566 146.98L102.54 146.898C102.531 146.866 102.52 146.828 102.509 146.786L102.08 147.722V147.722L100.776 150.548C100.166 151.867 98.2282 151.15 98.1561 149.879L98.1544 149.836C98.1481 149.601 98.1396 149.369 98.1248 149.138C98.0319 147.411 97.734 145.733 97.2608 144.091L97.09 144.303C94.5476 147.448 91.5638 150.395 87.4706 151.121C86.4439 151.302 85.2819 150.229 85.9875 149.191C86.2791 148.762 86.5601 148.322 86.8263 147.876C86.596 147.769 86.3784 147.657 86.1777 147.542C84.6248 146.67 83.3319 145.427 82.2629 144.017C79.996 141.029 79.1847 137.267 78.9861 133.585C78.7748 129.694 79.1171 125.592 80.1798 121.838C80.6403 120.215 81.2636 118.657 81.984 117.146C81.9333 117.011 81.8847 116.876 81.8361 116.74C81.0586 114.572 80.4206 112.355 79.8903 110.112C78.8213 105.585 78.2467 100.914 78.177 96.2626C78.0502 87.929 79.4868 79.4623 82.5143 71.691C85.641 63.6766 90.3439 55.956 96.7432 50.1333ZM92.8498 122.994C92.2757 122.09 90.8391 122.905 91.3722 123.815L91.3921 123.848C92.3026 125.283 92.7294 126.915 93.2533 128.515C93.5892 129.544 95.2223 129.104 94.8822 128.064L94.7696 127.717C94.2482 126.095 93.7726 124.446 92.8498 122.994ZM97.85 105.731L98.2314 105.546C99.4346 104.972 100.489 104.581 101.911 105.082C103.814 105.752 105.853 107.885 104.566 109.954C104.093 110.717 103.252 111.021 102.386 110.841C100.926 110.539 100.549 109.223 99.8077 108.143L99.6802 107.96C99.2284 107.307 98.6571 106.404 97.9049 106.147C97.7338 106.088 97.662 105.822 97.85 105.731ZM98.9234 61.8001L99.0463 61.6899C99.8639 60.9671 98.6639 59.7751 97.8505 60.4937C94.128 63.7844 92.835 68.935 90.904 73.3248C90.4709 74.3118 91.9266 75.1741 92.3639 74.1786C94.2059 69.9898 95.4285 64.9789 98.9234 61.8001V61.8001ZM143.657 60.3605C142.685 59.9221 141.834 61.3381 142.769 61.8043L142.804 61.821C146.091 63.3068 147.49 66.6715 148.829 69.7952C149.256 70.7928 150.712 69.9326 150.289 68.9435L150.047 68.383C148.65 65.1638 147.02 61.8825 143.657 60.3605ZM148.81 58.3273C147.779 57.9701 147.337 59.6018 148.36 59.9589C151.146 60.929 153.058 63.0214 154.67 65.4139C155.274 66.31 156.739 65.4646 156.128 64.56C154.256 61.7829 152.034 59.4517 148.81 58.3273Z" fill="black"/>
<path fill-rule="evenodd" clip-rule="evenodd" d="M148.318 128.112C146.762 128.563 145.092 128.603 143.505 128.137C142.066 127.715 140.589 126.785 139.53 125.555C138.589 124.462 137.98 123.134 138.004 121.717C138.006 121.555 138.064 121.42 138.153 121.315C138.249 121.202 138.383 121.124 138.526 121.091C138.674 121.056 138.83 121.068 138.963 121.129C139.083 121.183 139.186 121.276 139.25 121.412C139.413 121.626 139.575 121.836 139.738 122.041C141.046 123.658 142.313 124.866 144.281 125.299C145.349 125.534 146.415 125.43 147.393 125.071C148.441 124.687 149.387 124.012 150.129 123.148C150.465 122.757 150.86 122.598 151.247 122.595C151.686 122.592 152.12 122.796 152.446 123.122C152.767 123.442 152.982 123.878 153.002 124.333C153.019 124.732 152.888 125.15 152.542 125.522C151.4 126.749 149.92 127.648 148.318 128.112ZM148.271 107.866C149.866 108.836 152.297 111.098 150.581 113.503C148.561 115.624 145.652 113.193 144.219 112.093C142.89 111.241 141.396 113.433 142.63 114.428C152.987 122.099 157.19 108.12 149.078 106.726C148.185 106.572 147.853 107.566 148.271 107.866ZM133.347 103.598C132.834 103.269 132.231 103.157 131.563 103.461C131.04 103.699 130.124 104.491 129.487 105.533C129.05 106.245 128.741 107.081 128.805 107.952C128.82 108.154 128.746 108.303 128.628 108.413C128.535 108.5 128.4 108.564 128.243 108.584C128.109 108.601 127.959 108.586 127.837 108.548C127.605 108.475 127.482 108.325 127.436 108.202C126.989 107.016 127.181 105.692 127.682 104.498C128.357 102.886 129.583 101.536 130.387 101.101C131.762 100.356 133.384 100.322 134.76 101.081C135.932 101.727 136.665 102.77 137.394 103.833C137.549 104.059 137.703 104.283 137.862 104.504C138.18 104.945 138.212 105.383 138.089 105.759C137.952 106.175 137.604 106.526 137.168 106.71C136.765 106.879 136.298 106.903 135.884 106.729C135.535 106.581 135.214 106.294 135.011 105.807C134.67 104.985 134.1 104.079 133.347 103.598V103.598ZM159.389 105.425C159.037 105.608 158.763 105.663 158.373 105.546C158.158 105.481 157.945 105.357 157.778 105.191C157.613 105.025 157.494 104.82 157.447 104.592C157.333 104.029 157.026 103.502 156.587 103.159C156.212 102.866 155.739 102.71 155.214 102.798C154.648 102.892 154.109 103.256 153.737 103.684C153.613 103.827 153.515 103.99 153.418 104.152C153.234 104.454 153.057 104.735 152.804 104.957C152.708 105.042 152.564 105.1 152.424 105.1C152.368 105.1 152.31 105.091 152.255 105.074C151.691 104.508 151.583 104.079 151.601 103.653C151.62 103.206 151.796 102.754 152.081 102.332C152.748 101.343 154.014 100.531 154.869 100.348C156.04 100.096 157.202 100.398 158.134 101.052C159.093 101.725 159.804 102.77 160.025 103.947C160.079 104.231 160.056 104.537 159.948 104.802C159.842 105.062 159.659 105.284 159.389 105.425ZM135.928 93.0475C135.226 93.7321 134.395 93.8382 133.553 93.9325C133.086 93.9854 132.713 94.0281 132.346 94.111C131.337 94.3388 130.339 94.682 129.429 95.1763C128.478 95.693 127.441 96.3161 126.696 97.1144C126.518 97.3044 126.351 97.5037 126.184 97.7035C126.031 97.8857 125.884 98.061 125.729 98.2301C125.551 98.4243 125.382 98.6279 125.214 98.8309C125.11 99.0022 125.089 99.0444 125.068 99.0882C125.037 99.1541 125 99.2279 124.958 99.307C124.901 99.4154 124.834 99.534 124.764 99.6416C124.647 99.8382 124.584 99.8923 124.53 99.9165C124.44 99.9566 124.354 99.9764 124.272 99.9657C124.194 99.9557 124.121 99.9183 124.048 99.8573C123.688 99.5524 123.581 99.0522 123.592 98.5212C123.609 97.7153 123.906 96.8231 124.18 96.2747C124.817 95.0003 125.7 93.6755 126.762 92.7244C127.974 91.6387 129.3 90.8167 130.822 90.2504C131.769 89.8983 132.864 89.5751 133.895 89.6159C134.638 89.6453 135.346 89.866 135.931 90.4171C136.29 90.7554 136.463 91.2366 136.463 91.7175C136.463 92.2079 136.284 92.7013 135.928 93.0475ZM160.818 99.3172C160.773 99.3904 160.711 99.4409 160.642 99.4712C160.57 99.503 160.49 99.5122 160.412 99.4991C160.335 99.4862 160.262 99.4513 160.204 99.398C160.149 99.3469 160.106 99.2791 160.087 99.1961C159.621 97.1469 158.715 95.6223 156.783 94.6392C155.832 94.1555 154.738 93.8482 153.703 93.6032C153.403 93.532 153.085 93.4859 152.765 93.4392C151.762 93.2926 150.751 93.1248 150.098 92.3137C149.704 91.8251 149.538 91.2003 149.632 90.6288C149.72 90.0908 150.034 89.5974 150.605 89.3018C152.028 88.5661 153.795 89.288 155.232 89.903C155.338 89.9486 155.443 89.9934 155.545 90.0366C156.95 90.6297 158.231 91.4127 159.284 92.5323C160.119 93.4206 160.894 94.7338 161.205 96.0847C161.465 97.2085 161.404 98.3559 160.818 99.3172Z" fill="black"/>
</svg>
